<?xml version="1.0" standalone="no"?>
<!DOCTYPE svg PUBLIC "-//W3C//DTD SVG 20010904//EN"
 "http://www.w3.org/TR/2001/REC-SVG-20010904/DTD/svg10.dtd">
<svg version="1.0" xmlns="http://www.w3.org/2000/svg"
 width="700.000000pt" height="700.000000pt" viewBox="0 0 700.000000 700.000000"
 preserveAspectRatio="xMidYMid meet">
<metadata>
Created by potrace 1.14, written by Peter Selinger 2001-2017
</metadata>
<g transform="translate(0.000000,700.000000) scale(0.100000,-0.100000)"
fill="#000000" stroke="none">
<path d="M3477 6994 c-3 -3 -12 -7 -21 -8 -18 -2 -62 -47 -58 -58 1 -5 -3 -8
-9 -8 -5 0 -7 -5 -4 -10 3 -6 -1 -13 -9 -16 -9 -3 -13 -10 -10 -15 3 -5 0 -9
-5 -9 -6 0 -11 -7 -11 -15 0 -8 -4 -15 -10 -15 -5 0 -9 -3 -8 -7 2 -5 -12 -29
-30 -55 -17 -26 -32 -49 -32 -53 0 -4 -14 -26 -30 -51 -17 -24 -28 -44 -24
-44 4 0 -3 -9 -15 -19 -12 -11 -22 -22 -22 -25 3 -20 0 -26 -9 -21 -6 4 -9 3
-8 -2 3 -13 -13 -53 -21 -53 -5 0 -14 -13 -21 -30 -7 -16 -17 -30 -22 -30 -5
0 -6 -4 -3 -10 3 -5 1 -10 -4 -10 -6 0 -11 -7 -11 -15 0 -8 -5 -15 -11 -15 -5
0 -8 -4 -5 -8 3 -5 -4 -18 -14 -30 -11 -12 -20 -28 -20 -37 0 -9 -4 -13 -10
-10 -5 3 -10 -1 -10 -9 0 -8 -7 -22 -16 -30 -8 -9 -12 -16 -7 -16 4 0 1 -6 -8
-13 -15 -12 -19 -18 -19 -34 0 -5 -11 -21 -25 -37 -13 -16 -22 -33 -19 -37 3
-5 1 -9 -3 -9 -5 0 -22 -25 -38 -55 -17 -30 -33 -55 -37 -55 -5 0 -8 -7 -8
-15 0 -7 -8 -19 -17 -24 -10 -6 -14 -11 -9 -11 5 0 2 -8 -7 -17 -8 -10 -17
-25 -19 -33 -3 -15 -12 -29 -38 -59 -8 -10 -16 -24 -18 -32 -2 -8 -10 -21 -18
-30 -8 -8 -14 -21 -14 -27 0 -7 -5 -12 -11 -12 -5 0 -7 -4 -4 -10 3 -5 1 -10
-4 -10 -6 0 -11 -7 -11 -15 0 -8 -4 -15 -10 -15 -5 0 -10 -5 -10 -10 0 -12
-41 -73 -53 -78 -4 -2 -5 -8 -2 -13 4 -5 -3 -18 -14 -30 -11 -12 -18 -26 -15
-31 3 -4 1 -8 -5 -8 -6 0 -18 -16 -27 -35 -9 -19 -21 -35 -27 -35 -6 0 -7 -3
-4 -6 4 -4 -4 -21 -16 -38 -12 -17 -22 -33 -22 -36 -1 -7 -38 -63 -53 -79 -7
-7 -11 -20 -8 -28 3 -8 2 -11 -3 -8 -5 3 -12 -4 -16 -15 -3 -11 -11 -20 -16
-20 -6 0 -7 -5 -4 -10 3 -6 0 -13 -9 -16 -9 -3 -12 -12 -9 -21 5 -12 3 -14 -7
-8 -10 6 -12 4 -7 -8 3 -9 0 -20 -6 -24 -13 -8 -71 -96 -94 -143 -4 -8 -13
-21 -20 -28 -7 -8 -11 -18 -8 -23 4 -5 1 -9 -5 -9 -6 0 -16 -12 -23 -27 -6
-16 -20 -37 -29 -47 -10 -11 -18 -26 -18 -33 0 -7 -5 -13 -11 -13 -5 0 -7 -4
-4 -10 3 -5 1 -10 -5 -10 -6 0 -9 -4 -6 -9 3 -5 -1 -12 -10 -15 -9 -4 -14 -9
-11 -12 3 -4 -1 -13 -9 -21 -8 -8 -12 -19 -9 -24 4 -5 -1 -9 -10 -9 -9 0 -14
-4 -10 -9 3 -5 -1 -16 -9 -23 -7 -8 -17 -24 -20 -36 -4 -12 -12 -22 -17 -22
-6 0 -8 -4 -5 -9 3 -5 -1 -12 -10 -15 -8 -3 -12 -10 -9 -16 3 -6 -1 -13 -9
-16 -9 -3 -14 -10 -11 -14 3 -4 -2 -13 -10 -20 -8 -7 -12 -16 -9 -21 3 -5 1
-9 -5 -9 -5 0 -13 -9 -16 -20 -4 -11 -10 -18 -14 -16 -4 3 -7 -4 -8 -14 -1
-11 -11 -29 -22 -41 -11 -12 -18 -26 -15 -30 2 -4 -2 -11 -10 -16 -8 -4 -16
-15 -18 -23 -3 -14 -7 -20 -35 -54 -7 -8 -13 -18 -13 -22 0 -3 -9 -19 -21 -35
-11 -16 -17 -29 -12 -29 4 0 4 -4 -2 -8 -19 -14 -50 -56 -35 -47 8 5 3 -6 -12
-24 -16 -18 -28 -39 -28 -47 0 -8 -7 -14 -16 -14 -8 0 -12 -5 -9 -10 3 -6 -1
-17 -9 -26 -9 -9 -14 -20 -11 -25 4 -5 1 -9 -5 -9 -6 0 -15 -11 -20 -25 -5
-14 -14 -25 -20 -25 -5 0 -9 -3 -8 -7 2 -12 -14 -45 -31 -65 -9 -10 -14 -21
-13 -25 2 -3 0 -9 -5 -12 -13 -9 -63 -89 -63 -101 0 -5 -4 -10 -9 -10 -5 0
-13 -10 -17 -22 -3 -12 -13 -28 -20 -36 -8 -7 -12 -17 -9 -22 3 -4 -2 -10 -10
-14 -8 -3 -15 -12 -15 -21 0 -8 -3 -15 -8 -15 -4 0 -15 -17 -24 -37 -9 -21
-25 -48 -36 -59 -12 -12 -18 -25 -15 -28 4 -3 2 -6 -4 -6 -6 0 -14 -11 -17
-25 -4 -14 -11 -25 -17 -25 -6 0 -7 -4 -4 -10 3 -5 2 -10 -3 -10 -5 0 -15 -13
-22 -30 -7 -16 -17 -30 -22 -30 -5 0 -7 -4 -4 -8 3 -5 -3 -18 -14 -30 -11 -11
-21 -26 -22 -33 -3 -14 -14 -31 -40 -59 -9 -10 -14 -21 -10 -24 3 -4 -3 -13
-14 -21 -10 -8 -16 -15 -12 -15 4 0 -9 -24 -28 -52 -19 -29 -34 -56 -34 -61 0
-4 -4 -6 -8 -3 -4 2 -8 -4 -9 -14 -1 -11 -10 -29 -21 -40 -10 -11 -28 -39 -41
-62 -32 -63 -45 -82 -59 -91 -7 -5 -10 -12 -7 -16 2 -5 -2 -14 -10 -21 -8 -7
-13 -16 -10 -20 3 -4 -2 -11 -11 -14 -8 -3 -12 -10 -9 -16 3 -5 1 -10 -5 -10
-6 0 -8 -4 -5 -10 3 -5 2 -10 -2 -10 -8 0 -37 -42 -45 -65 -1 -5 -6 -9 -10 -8
-5 2 -9 -2 -9 -7 -1 -6 -2 -14 -3 -19 0 -4 -10 -19 -20 -33 -10 -14 -18 -29
-17 -33 2 -4 -1 -11 -6 -14 -12 -9 -83 -119 -83 -130 0 -5 -7 -14 -15 -21 -8
-7 -26 -36 -41 -66 -14 -30 -30 -54 -35 -54 -5 0 -9 -6 -9 -14 0 -8 -7 -22
-16 -30 -8 -9 -13 -16 -9 -16 3 0 -3 -10 -14 -22 -11 -11 -18 -25 -15 -30 3
-4 0 -8 -5 -8 -6 0 -11 -7 -11 -15 0 -9 -7 -18 -15 -21 -8 -4 -12 -10 -9 -15
3 -5 0 -9 -6 -9 -6 0 -9 -4 -6 -9 3 -4 -3 -16 -14 -26 -11 -10 -17 -22 -14
-26 3 -5 0 -9 -5 -9 -6 0 -11 -7 -11 -15 0 -8 -4 -15 -10 -15 -5 0 -10 -7 -10
-15 0 -8 -4 -15 -10 -15 -5 0 -10 -6 -10 -14 0 -7 -8 -24 -19 -37 -10 -13 -31
-48 -46 -77 -15 -28 -32 -52 -37 -52 -6 0 -8 -7 -4 -15 3 -9 0 -15 -10 -15 -8
0 -13 -4 -10 -9 3 -5 -1 -14 -9 -21 -8 -7 -15 -16 -15 -21 0 -4 -13 -28 -30
-52 -16 -25 -30 -50 -30 -56 0 -6 -4 -11 -10 -11 -5 0 -10 -7 -10 -15 0 -8 -5
-15 -11 -15 -5 0 -8 -4 -5 -9 3 -5 -1 -12 -10 -15 -8 -3 -13 -10 -10 -15 3 -5
-1 -14 -9 -21 -8 -7 -12 -16 -9 -21 3 -5 1 -9 -4 -9 -8 0 -32 -48 -36 -72 -1
-3 -4 -10 -8 -14 -4 -4 -2 -14 5 -22 10 -13 9 -14 -1 -8 -9 5 -12 -7 -11 -53
1 -33 4 -59 8 -57 3 2 7 -6 7 -17 3 -34 9 -54 22 -69 6 -8 9 -18 5 -21 -3 -4
-1 -7 6 -7 7 0 10 -3 8 -7 -2 -5 16 -27 39 -51 24 -23 44 -40 44 -37 0 3 6 1
12 -5 26 -21 89 -60 98 -60 6 0 10 -4 10 -10 0 -5 7 -10 15 -10 8 0 15 -4 15
-10 0 -5 5 -10 11 -10 6 0 30 -14 55 -30 24 -17 44 -27 44 -23 1 4 10 -3 21
-17 12 -14 22 -23 23 -21 2 7 46 -10 46 -19 0 -4 11 -11 24 -14 14 -3 31 -12
38 -19 7 -6 48 -29 91 -51 42 -21 80 -42 83 -47 3 -5 10 -7 15 -4 5 4 9 1 9
-4 0 -6 9 -11 20 -11 11 0 20 -4 20 -10 0 -5 9 -10 20 -10 11 0 20 -5 20 -11
0 -5 5 -7 10 -4 6 3 10 1 10 -4 0 -6 3 -11 8 -10 15 2 52 -14 52 -22 0 -5 3
-8 8 -7 8 1 43 -12 104 -42 23 -11 48 -20 55 -20 7 0 13 -4 13 -10 0 -5 9 -10
20 -10 11 0 20 -4 20 -8 0 -5 7 -9 15 -10 8 -1 22 -3 30 -4 8 -1 15 -5 15 -10
0 -4 9 -8 19 -8 11 0 26 -7 35 -15 8 -9 18 -15 21 -15 17 4 65 -13 65 -22 0
-6 3 -9 6 -5 3 3 29 -3 58 -15 28 -11 57 -21 64 -21 6 0 12 -4 12 -8 0 -5 7
-6 15 -3 8 4 15 1 15 -5 0 -6 7 -11 15 -11 24 0 95 -24 95 -32 0 -4 9 -5 20
-3 11 2 22 -1 25 -6 4 -5 11 -7 16 -4 5 4 9 1 9 -4 0 -6 3 -10 8 -9 15 3 82
-14 78 -21 -3 -4 7 -6 22 -6 15 1 32 -2 37 -5 6 -4 33 -13 60 -20 28 -7 56
-18 64 -24 12 -9 13 -8 6 4 -7 13 -6 13 7 2 9 -7 32 -15 51 -17 19 -3 45 -8
58 -13 13 -4 31 -8 39 -7 8 0 17 -2 20 -6 3 -4 22 -10 42 -13 21 -3 56 -10 77
-15 22 -5 42 -6 46 -3 3 3 5 1 5 -4 0 -5 8 -10 18 -10 9 -1 33 -4 52 -8 19 -4
50 -8 68 -9 17 -1 32 -5 32 -8 0 -4 14 -5 30 -4 17 1 30 0 30 -4 0 -6 42 -12
98 -14 12 -1 22 -3 22 -6 0 -4 17 -6 38 -6 20 0 43 -4 51 -10 12 -8 13 -7 6 5
-6 11 -3 11 11 -2 13 -11 24 -14 34 -8 8 5 19 5 25 1 5 -4 17 -7 25 -6 8 0 18
-4 22 -10 5 -6 8 -5 8 3 0 7 4 10 10 7 8 -5 94 -13 211 -19 25 -1 50 -6 56 -9
7 -4 15 -3 18 3 4 7 11 7 18 2 7 -5 135 -9 285 -10 209 -1 271 2 265 11 -5 9
-3 9 8 1 8 -6 28 -9 44 -8 17 2 62 5 101 7 39 2 76 7 84 12 9 6 11 4 5 -4 -6
-10 -3 -11 14 -2 16 9 21 9 21 -1 0 -8 3 -9 8 -3 4 6 14 10 22 10 8 -1 25 2
38 7 13 4 22 4 22 -3 0 -6 6 -7 13 -2 12 7 35 10 104 13 18 1 31 5 29 9 -2 3
18 6 46 5 27 0 51 3 54 8 3 4 10 8 15 8 6 0 7 -5 3 -12 -5 -7 -3 -8 7 -2 8 4
23 10 34 11 11 2 24 8 29 13 5 5 16 5 27 0 11 -6 20 -7 24 -1 3 6 14 8 25 6
11 -2 20 -1 20 3 0 4 15 7 33 7 17 0 40 3 49 7 9 5 28 9 42 10 15 1 26 5 26 9
0 8 32 5 48 -5 7 -4 15 -1 18 9 4 8 11 15 18 13 21 -3 106 14 106 22 0 5 11 7
25 5 14 -1 25 1 25 5 0 4 13 6 30 5 16 -1 27 1 24 6 -3 5 5 9 18 10 13 0 32 3
43 6 11 2 28 5 37 6 9 1 14 6 11 11 -4 5 3 7 15 4 12 -4 22 -2 22 4 0 5 4 7 8
4 5 -3 21 1 36 9 14 8 24 10 21 5 -7 -11 43 8 60 22 13 12 27 10 19 -3 -3 -6
5 -3 19 6 15 9 31 14 37 10 5 -3 10 -2 10 3 0 9 53 26 78 25 6 0 12 4 12 10 0
6 3 8 6 5 3 -4 17 0 31 7 15 8 30 12 35 9 4 -3 8 -1 8 5 0 6 7 8 15 5 8 -4 15
-1 15 6 0 7 7 10 15 6 8 -3 15 -1 15 5 0 6 4 8 9 4 5 -3 12 -1 16 5 3 5 13 10
21 10 8 0 36 10 62 21 25 12 51 22 57 23 5 1 20 7 31 14 12 6 24 8 28 5 3 -3
6 -1 6 5 0 7 3 11 8 10 4 -1 18 4 31 11 13 7 21 8 17 2 -4 -6 6 -3 23 6 16 10
27 22 24 27 -3 5 -1 6 5 2 7 -4 18 -4 25 1 6 4 19 8 27 10 8 1 16 7 18 13 2 5
7 8 12 5 5 -3 25 4 44 16 20 11 36 17 36 12 0 -4 4 -3 8 2 8 12 103 60 117 60
6 0 16 6 23 12 7 7 20 13 28 13 8 0 14 4 14 9 0 8 37 24 53 22 4 -1 7 4 7 10
0 5 4 8 9 4 6 -3 14 3 20 12 6 10 11 14 11 10 0 -5 14 1 30 13 17 12 30 18 30
14 0 -4 8 0 18 8 9 8 32 21 50 29 17 8 32 18 32 22 0 5 5 5 10 2 6 -3 10 -2
10 4 0 5 10 13 22 17 12 3 28 13 36 20 7 8 20 14 28 14 8 0 14 4 14 8 0 4 25
21 55 37 30 15 55 32 55 37 0 4 7 8 15 8 8 0 15 5 15 10 0 6 5 10 11 10 13 0
99 58 120 82 9 10 20 14 24 10 5 -4 5 -2 2 4 -4 7 0 17 8 24 8 7 15 19 15 26
0 8 3 14 8 14 12 0 29 45 28 73 -1 14 2 23 6 21 4 -3 5 30 2 73 -7 112 -8 112
-16 107 -4 -3 -9 0 -9 5 -1 6 -2 16 -3 21 0 6 -6 14 -12 18 -6 4 -15 18 -19
31 -4 14 -16 34 -26 45 -11 11 -19 25 -19 32 0 7 -4 14 -9 16 -5 2 -11 9 -13
17 -2 8 -12 25 -22 38 -11 13 -21 31 -22 40 -2 9 -10 20 -18 25 -9 5 -16 16
-16 23 0 8 -5 15 -11 15 -5 0 -8 4 -4 9 3 5 -1 15 -8 23 -7 7 -30 42 -52 78
-21 36 -43 67 -47 68 -4 2 -6 7 -4 11 3 4 -6 20 -19 35 -14 16 -22 33 -19 37
3 5 -2 12 -10 15 -9 3 -13 10 -10 15 3 5 0 9 -5 9 -6 0 -11 6 -11 13 0 7 -9
23 -19 34 -11 12 -17 24 -14 27 4 3 0 6 -7 6 -7 0 -11 3 -7 6 3 3 1 11 -4 18
-19 23 -89 137 -89 146 0 5 -6 13 -14 17 -8 4 -15 13 -17 18 -4 22 -62 115
-71 115 -5 0 -6 5 -3 11 4 5 -3 18 -14 28 -12 10 -21 23 -21 29 0 6 -13 31
-30 55 -16 25 -30 48 -30 51 0 3 -7 14 -15 23 -8 10 -16 23 -17 28 -1 6 -10
19 -20 29 -9 10 -15 23 -12 28 3 4 -2 11 -10 14 -9 3 -13 10 -10 15 3 5 0 9
-5 9 -6 0 -11 7 -11 16 0 8 -4 13 -8 10 -5 -3 -9 0 -9 7 0 7 -16 39 -36 70
-21 32 -37 62 -37 67 0 5 -6 13 -13 17 -7 4 -21 24 -30 44 -9 20 -23 42 -32
49 -8 7 -12 16 -9 21 3 5 0 9 -6 9 -6 0 -9 4 -5 9 3 6 -2 14 -10 19 -9 5 -17
17 -19 27 -1 10 -10 23 -20 30 -10 7 -16 15 -15 17 4 4 -51 98 -69 121 -8 9
-12 17 -8 17 4 0 -2 10 -14 22 -11 12 -20 28 -20 35 0 7 -4 13 -9 13 -5 0 -11
8 -15 18 -3 9 -17 35 -30 57 -14 22 -30 50 -37 63 -7 12 -16 22 -21 22 -4 0
-8 7 -8 16 0 8 -7 22 -15 31 -8 8 -13 19 -10 24 4 5 0 9 -7 9 -7 1 -24 23 -37
50 -13 28 -28 50 -33 50 -5 0 -6 5 -3 10 3 6 1 10 -4 10 -6 0 -11 9 -11 21 0
11 -4 17 -10 14 -5 -3 -10 1 -10 9 0 9 -9 25 -20 36 -11 11 -20 22 -20 25 0 3
0 9 0 13 0 5 -9 18 -20 30 -12 12 -18 22 -14 22 4 0 0 8 -8 18 -8 9 -32 46
-53 82 -21 36 -43 68 -49 72 -6 4 -8 10 -4 13 3 3 -5 18 -17 31 -14 16 -21 32
-18 42 3 9 2 14 -2 10 -9 -9 -37 31 -75 105 -14 26 -28 47 -32 47 -5 0 -8 7
-8 15 0 8 -5 15 -11 15 -5 0 -7 5 -4 10 3 6 -1 13 -9 16 -9 3 -16 12 -16 20 0
8 -8 23 -17 34 -10 11 -16 22 -13 24 3 1 -2 10 -10 19 -32 35 -39 45 -33 51 4
3 1 6 -6 6 -7 0 -10 4 -7 8 3 5 -4 18 -14 30 -11 12 -20 25 -20 30 0 5 -7 15
-15 22 -8 7 -12 16 -9 21 3 5 0 9 -5 9 -6 0 -11 6 -11 14 0 7 -7 19 -15 26 -9
7 -13 15 -11 17 2 3 -4 13 -15 24 -11 11 -17 25 -13 31 4 7 3 8 -4 4 -7 -4
-14 3 -18 19 -3 14 -10 25 -15 25 -5 0 -9 5 -9 11 0 6 -15 34 -34 62 -18 29
-42 67 -52 85 -10 17 -22 32 -26 32 -4 0 -5 7 -2 15 4 10 0 15 -11 15 -9 0
-14 4 -10 9 3 5 -3 17 -12 27 -10 10 -18 20 -18 23 0 3 -4 4 -10 3 -5 -2 -7 0
-3 4 8 7 -17 58 -40 82 -7 8 -10 18 -7 23 4 5 2 9 -3 9 -5 0 -21 23 -36 50
-15 28 -31 50 -36 50 -5 0 -7 8 -3 18 3 9 3 14 -2 10 -4 -4 -13 2 -20 15 -19
36 -40 72 -45 77 -6 6 -25 39 -49 85 -15 28 -22 37 -48 69 -6 7 -10 16 -7 19
2 2 -2 10 -11 17 -8 7 -15 18 -15 25 0 7 -7 18 -15 25 -9 7 -13 15 -11 17 2 3
-4 13 -15 24 -11 11 -17 24 -14 28 2 5 -2 11 -10 15 -8 3 -15 12 -15 21 0 8
-4 15 -10 15 -5 0 -10 7 -10 15 0 8 -4 15 -10 15 -5 0 -10 9 -10 20 0 11 -4
20 -10 20 -5 0 -10 7 -10 15 0 8 -4 15 -10 15 -5 0 -10 6 -10 13 0 7 -9 23
-19 34 -11 12 -18 23 -15 26 2 2 -2 10 -11 17 -8 7 -15 17 -15 23 0 5 -11 25
-26 44 -14 18 -22 33 -19 33 3 0 -3 10 -15 22 -11 12 -20 26 -20 31 0 4 -7 15
-15 24 -8 8 -13 18 -10 23 3 4 -2 11 -11 14 -8 3 -12 10 -9 16 3 5 1 10 -4 10
-6 0 -11 7 -11 15 0 8 -4 15 -10 15 -5 0 -10 6 -10 13 0 7 -9 23 -20 35 -11
12 -20 28 -20 37 0 8 -4 15 -9 15 -5 0 -14 14 -21 30 -7 17 -15 30 -19 30 -7
0 -34 61 -32 73 0 4 -6 7 -14 7 -8 0 -15 9 -15 19 0 11 -4 21 -8 23 -11 4 -73
108 -65 108 3 0 -3 8 -14 18 -20 17 -38 51 -35 65 1 4 -5 7 -14 7 -8 0 -13 4
-9 9 3 5 -2 17 -11 25 -8 9 -12 16 -7 16 4 0 -1 7 -11 15 -11 8 -16 15 -12 15
4 0 -2 13 -13 29 -11 15 -17 32 -13 36 4 5 2 5 -4 2 -7 -4 -17 7 -25 26 -7 17
-20 37 -29 44 -8 7 -10 13 -5 13 6 0 -3 7 -19 15 -33 17 -80 27 -89 19z"/>
</g>
</svg>
